# Blender 5.1.0
# www.blender.org
mtllib circle.mtl
o Circle
v 0.708628 0.705582 0.000000
v 0.557360 0.830271 0.000000
v 0.384672 0.923053 0.000000
v 0.197202 0.980363 0.000000
v 0.002153 0.999998 0.000000
v -0.192978 0.981203 0.000000
v -0.380693 0.924701 0.000000
v -0.553778 0.832664 0.000000
v -0.705582 0.708628 0.000000
v -0.830271 0.557360 0.000000
v -0.923053 0.384672 0.000000
v -0.980363 0.197202 0.000000
v -0.999998 0.002153 0.000000
v -0.981203 -0.192978 0.000000
v -0.924701 -0.380693 0.000000
v -0.832664 -0.553778 0.000000
v -0.708628 -0.705582 0.000000
v -0.557360 -0.830271 0.000000
v -0.384672 -0.923053 0.000000
v -0.197202 -0.980363 0.000000
v -0.002153 -0.999998 0.000000
v 0.192978 -0.981203 0.000000
v 0.380693 -0.924701 0.000000
v 0.553778 -0.832664 0.000000
v 0.705582 -0.708628 0.000000
v 0.830271 -0.557360 0.000000
v 0.923053 -0.384672 0.000000
v 0.980363 -0.197202 0.000000
v 0.999998 -0.002153 0.000000
v 0.981203 0.192978 0.000000
v 0.924701 0.380693 0.000000
v 0.832664 0.553778 0.000000
v 0.654712 0.663838 0.000000
v 0.451595 0.745773 0.000000
v 0.231118 0.796433 0.000000
v 0.001753 0.813873 0.000000
v -0.227685 0.797421 0.000000
v -0.448379 0.747711 0.000000
v -0.651847 0.666652 0.000000
v 0.726885 0.462363 0.000000
v 0.501128 0.523219 0.000000
v 0.256106 0.560922 0.000000
v 0.001236 0.574024 0.000000
v -0.253688 0.562020 0.000000
v -0.498870 0.525373 0.000000
v -0.724887 0.465489 0.000000
v 0.771109 0.236554 0.000000
v 0.531378 0.269115 0.000000
v 0.271222 0.289408 0.000000
v 0.000639 0.296653 0.000000
v -0.269973 0.290573 0.000000
v -0.530214 0.271401 0.000000
v -0.770083 0.239873 0.000000
v 0.785693 -0.001692 0.000000
v 0.541195 -0.001165 0.000000
v 0.275899 -0.000594 0.000000
v 0.000000 0.000000 0.000000
v -0.275899 0.000594 0.000000
v -0.541195 0.001165 0.000000
v -0.785693 0.001692 0.000000
v 0.770083 -0.239873 0.000000
v 0.530214 -0.271401 0.000000
v 0.269973 -0.290573 0.000000
v -0.000639 -0.296653 0.000000
v -0.271222 -0.289408 0.000000
v -0.531378 -0.269115 0.000000
v -0.771109 -0.236554 0.000000
v 0.724887 -0.465489 0.000000
v 0.498870 -0.525373 0.000000
v 0.253688 -0.562020 0.000000
v -0.001236 -0.574024 0.000000
v -0.256106 -0.560922 0.000000
v -0.501128 -0.523219 0.000000
v -0.726885 -0.462363 0.000000
v 0.651847 -0.666652 0.000000
v 0.448379 -0.747711 0.000000
v 0.227685 -0.797421 0.000000
v -0.001753 -0.813873 0.000000
v -0.231118 -0.796433 0.000000
v -0.451595 -0.745773 0.000000
v -0.654712 -0.663838 0.000000
vn -0.0000 -0.0000 1.0000
vt 0.171746 0.165930
vt 0.144703 0.144911
vt 0.220804 0.082419
vt 0.135305 0.267068
vt 0.082255 0.221049
vt 0.112879 0.380454
vt 0.035861 0.307907
vt 0.105331 0.500116
vt 0.007304 0.402147
vt 0.007362 0.598142
vt -0.002319 0.500147
vt 0.112949 0.619773
vt 0.035974 0.692365
vt 0.135441 0.733146
vt 0.082419 0.779196
vt 0.171943 0.834262
vt 0.144911 0.855297
vt 0.273852 0.124963
vt 0.307635 0.035974
vt 0.248763 0.236709
vt 0.233331 0.364322
vt 0.228147 0.500080
vt 0.233410 0.635834
vt 0.248918 0.763438
vt 0.274073 0.875170
vt 0.221049 0.917745
vt 0.384650 0.099721
vt 0.401858 0.007362
vt 0.371877 0.217999
vt 0.364031 0.354372
vt 0.361411 0.500041
vt 0.364116 0.645708
vt 0.372043 0.782076
vt 0.384885 0.900346
vt 0.307907 0.964139
vt 0.499880 0.091175
vt 0.499853 -0.002319
vt 0.499915 0.211656
vt 0.499956 0.350985
vt 0.500000 0.500000
vt 0.500044 0.649015
vt 0.500085 0.788344
vt 0.500120 0.908825
vt 0.402147 0.992696
vt 0.597853 0.007304
vt 0.615115 0.099654
vt 0.627957 0.217924
vt 0.635884 0.354292
vt 0.635969 0.645628
vt 0.638589 0.499959
vt 0.628123 0.782001
vt 0.615350 0.900279
vt 0.598142 0.992638
vt 0.692093 0.035861
vt 0.725927 0.124830
vt 0.751082 0.236562
vt 0.766589 0.364166
vt 0.766669 0.635678
vt 0.771853 0.499920
vt 0.751237 0.763291
vt 0.726148 0.875037
vt 0.692365 0.964026
vt 0.778951 0.082255
vt 0.828057 0.165738
vt 0.864558 0.266854
vt 0.887051 0.380227
vt 0.887121 0.619546
vt 0.894669 0.499884
vt 0.864695 0.732932
vt 0.828254 0.834070
vt 0.779196 0.917581
vt 0.855089 0.144703
vt 0.917581 0.220804
vt 0.964026 0.307635
vt 0.992638 0.401858
vt 0.992696 0.597853
vt 1.002319 0.499853
vt 0.964139 0.692093
vt 0.917745 0.778951
vt 0.855297 0.855089
vt 0.500147 1.002319
s 0
f 33/1/1 1/2/1 2/3/1
f 40/4/1 32/5/1 33/1/1
f 47/6/1 31/7/1 40/4/1
f 54/8/1 30/9/1 47/6/1
f 54/8/1 28/10/1 29/11/1
f 61/12/1 27/13/1 28/10/1
f 68/14/1 26/15/1 27/13/1
f 75/16/1 25/17/1 26/15/1
f 34/18/1 2/3/1 3/19/1
f 41/20/1 33/1/1 34/18/1
f 48/21/1 40/4/1 41/20/1
f 55/22/1 47/6/1 48/21/1
f 55/22/1 61/12/1 54/8/1
f 62/23/1 68/14/1 61/12/1
f 69/24/1 75/16/1 68/14/1
f 76/25/1 24/26/1 75/16/1
f 35/27/1 3/19/1 4/28/1
f 42/29/1 34/18/1 35/27/1
f 49/30/1 41/20/1 42/29/1
f 56/31/1 48/21/1 49/30/1
f 56/31/1 62/23/1 55/22/1
f 63/32/1 69/24/1 62/23/1
f 70/33/1 76/25/1 69/24/1
f 77/34/1 23/35/1 76/25/1
f 36/36/1 4/28/1 5/37/1
f 43/38/1 35/27/1 36/36/1
f 50/39/1 42/29/1 43/38/1
f 57/40/1 49/30/1 50/39/1
f 57/40/1 63/32/1 56/31/1
f 64/41/1 70/33/1 63/32/1
f 71/42/1 77/34/1 70/33/1
f 78/43/1 22/44/1 77/34/1
f 6/45/1 36/36/1 5/37/1
f 37/46/1 43/38/1 36/36/1
f 44/47/1 50/39/1 43/38/1
f 51/48/1 57/40/1 50/39/1
f 65/49/1 57/40/1 58/50/1
f 72/51/1 64/41/1 65/49/1
f 79/52/1 71/42/1 72/51/1
f 20/53/1 78/43/1 79/52/1
f 7/54/1 37/46/1 6/45/1
f 38/55/1 44/47/1 37/46/1
f 45/56/1 51/48/1 44/47/1
f 52/57/1 58/50/1 51/48/1
f 66/58/1 58/50/1 59/59/1
f 73/60/1 65/49/1 66/58/1
f 80/61/1 72/51/1 73/60/1
f 19/62/1 79/52/1 80/61/1
f 8/63/1 38/55/1 7/54/1
f 39/64/1 45/56/1 38/55/1
f 46/65/1 52/57/1 45/56/1
f 53/66/1 59/59/1 52/57/1
f 67/67/1 59/59/1 60/68/1
f 74/69/1 66/58/1 67/67/1
f 81/70/1 73/60/1 74/69/1
f 18/71/1 80/61/1 81/70/1
f 9/72/1 39/64/1 8/63/1
f 10/73/1 46/65/1 39/64/1
f 11/74/1 53/66/1 46/65/1
f 12/75/1 60/68/1 53/66/1
f 14/76/1 60/68/1 13/77/1
f 15/78/1 67/67/1 14/76/1
f 16/79/1 74/69/1 15/78/1
f 17/80/1 81/70/1 16/79/1
f 33/1/1 32/5/1 1/2/1
f 40/4/1 31/7/1 32/5/1
f 47/6/1 30/9/1 31/7/1
f 54/8/1 29/11/1 30/9/1
f 54/8/1 61/12/1 28/10/1
f 61/12/1 68/14/1 27/13/1
f 68/14/1 75/16/1 26/15/1
f 75/16/1 24/26/1 25/17/1
f 34/18/1 33/1/1 2/3/1
f 41/20/1 40/4/1 33/1/1
f 48/21/1 47/6/1 40/4/1
f 55/22/1 54/8/1 47/6/1
f 55/22/1 62/23/1 61/12/1
f 62/23/1 69/24/1 68/14/1
f 69/24/1 76/25/1 75/16/1
f 76/25/1 23/35/1 24/26/1
f 35/27/1 34/18/1 3/19/1
f 42/29/1 41/20/1 34/18/1
f 49/30/1 48/21/1 41/20/1
f 56/31/1 55/22/1 48/21/1
f 56/31/1 63/32/1 62/23/1
f 63/32/1 70/33/1 69/24/1
f 70/33/1 77/34/1 76/25/1
f 77/34/1 22/44/1 23/35/1
f 36/36/1 35/27/1 4/28/1
f 43/38/1 42/29/1 35/27/1
f 50/39/1 49/30/1 42/29/1
f 57/40/1 56/31/1 49/30/1
f 57/40/1 64/41/1 63/32/1
f 64/41/1 71/42/1 70/33/1
f 71/42/1 78/43/1 77/34/1
f 78/43/1 21/81/1 22/44/1
f 6/45/1 37/46/1 36/36/1
f 37/46/1 44/47/1 43/38/1
f 44/47/1 51/48/1 50/39/1
f 51/48/1 58/50/1 57/40/1
f 65/49/1 64/41/1 57/40/1
f 72/51/1 71/42/1 64/41/1
f 79/52/1 78/43/1 71/42/1
f 20/53/1 21/81/1 78/43/1
f 7/54/1 38/55/1 37/46/1
f 38/55/1 45/56/1 44/47/1
f 45/56/1 52/57/1 51/48/1
f 52/57/1 59/59/1 58/50/1
f 66/58/1 65/49/1 58/50/1
f 73/60/1 72/51/1 65/49/1
f 80/61/1 79/52/1 72/51/1
f 19/62/1 20/53/1 79/52/1
f 8/63/1 39/64/1 38/55/1
f 39/64/1 46/65/1 45/56/1
f 46/65/1 53/66/1 52/57/1
f 53/66/1 60/68/1 59/59/1
f 67/67/1 66/58/1 59/59/1
f 74/69/1 73/60/1 66/58/1
f 81/70/1 80/61/1 73/60/1
f 18/71/1 19/62/1 80/61/1
f 9/72/1 10/73/1 39/64/1
f 10/73/1 11/74/1 46/65/1
f 11/74/1 12/75/1 53/66/1
f 12/75/1 13/77/1 60/68/1
f 14/76/1 67/67/1 60/68/1
f 15/78/1 74/69/1 67/67/1
f 16/79/1 81/70/1 74/69/1
f 17/80/1 18/71/1 81/70/1
